<?xml version="1.0" encoding="UTF-8" standalone="no"?>
<!DOCTYPE svg PUBLIC "-//W3C//DTD SVG 1.1//EN" "http://www.w3.org/Graphics/SVG/1.1/DTD/svg11.dtd">
<svg version="1.1" xmlns="http://www.w3.org/2000/svg" xmlns:xlink="http://www.w3.org/1999/xlink" preserveAspectRatio="xMidYMid meet" viewBox="0 0 50 50" width="50" height="50"><defs><path d="M28.08 5L28.12 5.01L28.16 5.02L28.19 5.03L28.23 5.04L28.26 5.05L28.29 5.06L28.33 5.08L28.36 5.1L28.39 5.12L28.42 5.14L28.45 5.16L28.47 5.19L28.5 5.21L28.53 5.24L28.55 5.27L28.58 5.3L28.6 5.33L28.62 5.37L28.65 5.4L28.67 5.44L28.69 5.47L28.71 5.51L28.73 5.55L28.75 5.59L28.77 5.63L28.79 5.68L28.81 5.72L28.83 5.76L28.85 5.81L28.86 5.86L28.88 5.9L28.9 5.95L28.92 6L28.93 6.05L28.95 6.1L28.97 6.15L28.98 6.2L29 6.25L29.86 9.49L30.14 9.58L30.74 9.79L31.33 10.03L31.9 10.28L32.47 10.56L32.51 10.59L35.43 8.9L35.48 8.88L35.53 8.85L35.57 8.83L35.62 8.81L35.67 8.78L35.71 8.76L35.76 8.74L35.81 8.72L35.85 8.7L35.9 8.68L35.94 8.66L35.98 8.64L36.03 8.63L36.07 8.61L36.11 8.6L36.16 8.58L36.2 8.57L36.24 8.56L36.28 8.55L36.32 8.54L36.36 8.54L36.4 8.53L36.44 8.53L36.48 8.52L36.52 8.52L36.55 8.52L36.59 8.52L36.63 8.53L36.66 8.53L36.7 8.54L36.73 8.55L36.77 8.56L36.8 8.57L36.83 8.59L36.87 8.61L36.9 8.63L36.93 8.65L36.96 8.67L36.99 8.7L37.02 8.72L41.26 12.97L41.29 13L41.32 13.03L41.34 13.06L41.36 13.09L41.38 13.12L41.4 13.16L41.42 13.19L41.43 13.22L41.44 13.26L41.45 13.3L41.46 13.33L41.47 13.37L41.47 13.41L41.48 13.45L41.48 13.48L41.48 13.52L41.48 13.56L41.47 13.6L41.47 13.64L41.46 13.68L41.45 13.73L41.45 13.77L41.43 13.81L41.42 13.85L41.41 13.89L41.4 13.94L41.38 13.98L41.36 14.02L41.35 14.07L41.33 14.11L41.31 14.16L41.29 14.2L41.26 14.24L41.24 14.29L41.22 14.33L41.19 14.38L41.17 14.42L41.14 14.47L41.11 14.51L41.09 14.56L39.4 17.47L39.44 17.53L39.72 18.1L39.97 18.67L40.21 19.26L40.42 19.86L40.51 20.14L43.75 21L43.8 21.01L43.85 21.02L43.9 21.04L43.95 21.05L44 21.07L44.05 21.08L44.1 21.1L44.14 21.11L44.19 21.13L44.24 21.15L44.28 21.16L44.32 21.18L44.37 21.2L44.41 21.22L44.45 21.24L44.49 21.26L44.53 21.28L44.56 21.31L44.6 21.33L44.63 21.35L44.67 21.38L44.7 21.4L44.73 21.43L44.76 21.46L44.79 21.48L44.81 21.51L44.84 21.54L44.86 21.57L44.88 21.6L44.9 21.63L44.92 21.67L44.94 21.7L44.95 21.73L44.96 21.77L44.97 21.81L44.98 21.84L44.99 21.88L45 21.92L45 21.96L45 22L45 28L45 28.04L45 28.08L44.99 28.12L44.98 28.16L44.97 28.19L44.96 28.23L44.95 28.26L44.94 28.29L44.92 28.33L44.9 28.36L44.88 28.39L44.86 28.42L44.84 28.45L44.81 28.47L44.79 28.5L44.76 28.53L44.73 28.55L44.7 28.58L44.67 28.6L44.63 28.62L44.6 28.65L44.56 28.67L44.53 28.69L44.49 28.71L44.45 28.73L44.41 28.75L44.37 28.77L44.32 28.79L44.28 28.81L44.24 28.83L44.19 28.85L44.14 28.86L44.1 28.88L44.05 28.9L44 28.92L43.95 28.93L43.9 28.95L43.85 28.97L43.8 28.98L43.75 29L40.51 29.86L40.42 30.14L40.21 30.74L39.97 31.33L39.72 31.9L39.44 32.47L39.4 32.52L41.09 35.43L41.11 35.47L41.14 35.52L41.17 35.56L41.19 35.61L41.22 35.65L41.24 35.7L41.26 35.74L41.29 35.79L41.31 35.83L41.33 35.88L41.35 35.92L41.36 35.96L41.38 36.01L41.4 36.05L41.41 36.09L41.42 36.14L41.43 36.18L41.45 36.22L41.45 36.26L41.46 36.3L41.47 36.35L41.47 36.39L41.48 36.43L41.48 36.47L41.48 36.5L41.48 36.54L41.47 36.58L41.47 36.62L41.46 36.66L41.45 36.69L41.44 36.73L41.43 36.76L41.42 36.8L41.4 36.83L41.38 36.87L41.36 36.9L41.34 36.93L41.32 36.96L41.29 36.99L41.26 37.02L37.02 41.26L36.99 41.29L36.96 41.32L36.93 41.34L36.9 41.36L36.87 41.38L36.83 41.4L36.8 41.41L36.77 41.43L36.73 41.44L36.7 41.45L36.66 41.45L36.63 41.46L36.59 41.46L36.55 41.47L36.52 41.47L36.48 41.46L36.44 41.46L36.4 41.46L36.36 41.45L36.32 41.44L36.28 41.44L36.24 41.43L36.2 41.42L36.16 41.4L36.11 41.39L36.07 41.38L36.03 41.36L35.98 41.34L35.94 41.33L35.9 41.31L35.85 41.29L35.81 41.27L35.76 41.25L35.71 41.23L35.67 41.2L35.62 41.18L35.57 41.16L35.53 41.14L35.48 41.11L35.43 41.09L32.52 39.4L32.47 39.44L31.9 39.72L31.33 39.97L30.74 40.21L30.14 40.42L29.86 40.51L29 43.75L28.98 43.8L28.97 43.85L28.95 43.9L28.93 43.95L28.92 44L28.9 44.05L28.88 44.1L28.86 44.14L28.85 44.19L28.83 44.24L28.81 44.28L28.79 44.32L28.77 44.37L28.75 44.41L28.73 44.45L28.71 44.49L28.69 44.53L28.67 44.56L28.65 44.6L28.62 44.63L28.6 44.67L28.58 44.7L28.55 44.73L28.53 44.76L28.5 44.79L28.47 44.81L28.45 44.84L28.42 44.86L28.39 44.88L28.36 44.9L28.33 44.92L28.29 44.94L28.26 44.95L28.23 44.96L28.19 44.97L28.16 44.98L28.12 44.99L28.08 45L28.04 45L28 45L22 45L21.96 45L21.92 45L21.88 44.99L21.84 44.98L21.81 44.97L21.77 44.96L21.73 44.95L21.7 44.94L21.67 44.92L21.63 44.9L21.6 44.88L21.57 44.86L21.54 44.84L21.51 44.81L21.48 44.79L21.46 44.76L21.43 44.73L21.4 44.7L21.38 44.67L21.35 44.63L21.33 44.6L21.31 44.56L21.28 44.53L21.26 44.49L21.24 44.45L21.22 44.41L21.2 44.37L21.18 44.32L21.16 44.28L21.15 44.24L21.13 44.19L21.11 44.14L21.1 44.1L21.08 44.05L21.07 44L21.05 43.95L21.04 43.9L21.02 43.85L21.01 43.8L21 43.75L20.14 40.51L19.86 40.42L19.26 40.21L18.67 39.97L18.1 39.72L17.53 39.44L17.46 39.4L14.57 41.07L14.53 41.1L14.48 41.13L14.44 41.16L14.39 41.18L14.35 41.21L14.3 41.23L14.26 41.25L14.21 41.27L14.17 41.3L14.12 41.32L14.08 41.33L14.04 41.35L13.99 41.37L13.95 41.38L13.91 41.4L13.86 41.41L13.82 41.42L13.78 41.43L13.74 41.44L13.7 41.45L13.65 41.46L13.61 41.46L13.57 41.46L13.53 41.47L13.5 41.47L13.46 41.46L13.42 41.46L13.38 41.46L13.34 41.45L13.31 41.44L13.27 41.43L13.24 41.42L13.2 41.41L13.17 41.39L13.13 41.37L13.1 41.35L13.07 41.33L13.04 41.31L13.01 41.28L12.98 41.25L8.74 37.01L8.71 36.98L8.68 36.95L8.66 36.92L8.64 36.89L8.62 36.85L8.6 36.82L8.59 36.79L8.57 36.76L8.56 36.72L8.55 36.69L8.55 36.65L8.54 36.62L8.54 36.58L8.53 36.54L8.53 36.5L8.54 36.47L8.54 36.43L8.54 36.39L8.55 36.35L8.56 36.31L8.56 36.27L8.57 36.23L8.58 36.19L8.6 36.14L8.61 36.1L8.62 36.06L8.64 36.02L8.66 35.97L8.67 35.93L8.69 35.88L8.71 35.84L8.73 35.79L8.75 35.75L8.77 35.7L8.8 35.66L8.82 35.61L8.84 35.56L8.86 35.51L8.89 35.47L8.91 35.42L10.59 32.52L10.56 32.47L10.28 31.9L10.03 31.33L9.79 30.74L9.58 30.14L9.49 29.86L6.25 29L6.2 28.98L6.15 28.97L6.1 28.95L6.05 28.93L6 28.92L5.95 28.9L5.9 28.88L5.86 28.86L5.81 28.85L5.76 28.83L5.72 28.81L5.68 28.79L5.63 28.77L5.59 28.75L5.55 28.73L5.51 28.71L5.47 28.69L5.44 28.67L5.4 28.65L5.37 28.62L5.33 28.6L5.3 28.58L5.27 28.55L5.24 28.53L5.21 28.5L5.19 28.47L5.16 28.45L5.14 28.42L5.12 28.39L5.1 28.36L5.08 28.33L5.06 28.29L5.05 28.26L5.04 28.23L5.03 28.19L5.02 28.16L5.01 28.12L5 28.08L5 28.04L5 28L5 22L5 21.96L5 21.92L5.01 21.88L5.02 21.84L5.03 21.81L5.04 21.77L5.05 21.73L5.06 21.7L5.08 21.67L5.1 21.63L5.12 21.6L5.14 21.57L5.16 21.54L5.19 21.51L5.21 21.48L5.24 21.46L5.27 21.43L5.3 21.4L5.33 21.38L5.37 21.35L5.4 21.33L5.44 21.31L5.47 21.28L5.51 21.26L5.55 21.24L5.59 21.22L5.63 21.2L5.68 21.18L5.72 21.16L5.76 21.15L5.81 21.13L5.86 21.11L5.9 21.1L5.95 21.08L6 21.07L6.05 21.05L6.1 21.04L6.15 21.02L6.2 21.01L6.25 21L9.49 20.14L9.58 19.86L9.79 19.26L10.03 18.67L10.28 18.1L10.56 17.53L10.6 17.48L8.91 14.57L8.89 14.52L8.86 14.47L8.84 14.43L8.82 14.38L8.8 14.33L8.77 14.29L8.75 14.24L8.73 14.19L8.71 14.15L8.69 14.1L8.67 14.06L8.66 14.02L8.64 13.97L8.62 13.93L8.61 13.89L8.6 13.84L8.58 13.8L8.57 13.76L8.56 13.72L8.56 13.68L8.55 13.64L8.54 13.6L8.54 13.56L8.54 13.52L8.53 13.48L8.53 13.45L8.54 13.41L8.54 13.37L8.55 13.34L8.55 13.3L8.56 13.27L8.57 13.23L8.59 13.2L8.6 13.17L8.62 13.13L8.64 13.1L8.66 13.07L8.68 13.04L8.71 13.01L8.74 12.98L12.98 8.74L13.01 8.71L13.04 8.68L13.07 8.66L13.1 8.64L13.13 8.62L13.17 8.6L13.2 8.58L13.24 8.57L13.27 8.56L13.31 8.55L13.34 8.54L13.38 8.53L13.42 8.53L13.46 8.52L13.5 8.52L13.53 8.52L13.57 8.52L13.61 8.53L13.65 8.53L13.7 8.54L13.74 8.55L13.78 8.55L13.82 8.57L13.86 8.58L13.91 8.59L13.95 8.6L13.99 8.62L14.04 8.64L14.08 8.65L14.12 8.67L14.17 8.69L14.21 8.71L14.26 8.74L14.3 8.76L14.35 8.78L14.39 8.81L14.44 8.83L14.48 8.86L14.53 8.89L14.57 8.91L17.48 10.6L17.53 10.56L18.1 10.28L18.67 10.03L19.26 9.79L19.86 9.58L20.14 9.49L21 6.25L21.01 6.2L21.02 6.15L21.04 6.1L21.05 6.05L21.07 6L21.08 5.95L21.1 5.9L21.11 5.86L21.13 5.81L21.15 5.76L21.16 5.72L21.18 5.68L21.2 5.63L21.22 5.59L21.24 5.55L21.26 5.51L21.28 5.47L21.31 5.44L21.33 5.4L21.35 5.37L21.38 5.33L21.4 5.3L21.43 5.27L21.46 5.24L21.48 5.21L21.51 5.19L21.54 5.16L21.57 5.14L21.6 5.12L21.63 5.1L21.67 5.08L21.7 5.06L21.73 5.05L21.77 5.04L21.81 5.03L21.84 5.02L21.88 5.01L21.92 5L21.96 5L22 5L28 5L28.04 5L28.08 5ZM24.28 16.28L23.93 16.31L23.58 16.36L23.24 16.43L22.9 16.5L22.56 16.59L22.23 16.7L21.91 16.81L21.59 16.94L21.28 17.08L20.98 17.23L20.68 17.39L20.39 17.56L20.11 17.74L19.83 17.94L19.56 18.14L19.31 18.36L19.05 18.58L18.81 18.81L18.58 19.05L18.36 19.31L18.14 19.56L17.94 19.83L17.74 20.11L17.56 20.39L17.39 20.68L17.23 20.98L17.08 21.28L16.94 21.59L16.81 21.91L16.7 22.23L16.59 22.56L16.5 22.9L16.43 23.24L16.36 23.58L16.31 23.93L16.28 24.28L16.26 24.64L16.25 25L16.26 25.36L16.28 25.72L16.31 26.07L16.36 26.42L16.43 26.76L16.5 27.1L16.59 27.44L16.7 27.77L16.81 28.09L16.94 28.41L17.08 28.72L17.23 29.02L17.39 29.32L17.56 29.61L17.74 29.89L17.94 30.17L18.14 30.44L18.36 30.69L18.58 30.95L18.81 31.19L19.05 31.42L19.31 31.64L19.56 31.86L19.83 32.06L20.11 32.26L20.39 32.44L20.68 32.61L20.98 32.77L21.28 32.92L21.59 33.06L21.91 33.19L22.23 33.3L22.56 33.41L22.9 33.5L23.24 33.57L23.58 33.64L23.93 33.69L24.28 33.72L24.64 33.74L25 33.75L25.36 33.74L25.72 33.72L26.07 33.69L26.42 33.64L26.76 33.57L27.1 33.5L27.44 33.41L27.77 33.3L28.09 33.19L28.41 33.06L28.72 32.92L29.02 32.77L29.32 32.61L29.61 32.44L29.89 32.26L30.17 32.06L30.44 31.86L30.69 31.64L30.95 31.42L31.19 31.19L31.42 30.95L31.64 30.69L31.86 30.44L32.06 30.17L32.26 29.89L32.44 29.61L32.61 29.32L32.77 29.02L32.92 28.72L33.06 28.41L33.19 28.09L33.3 27.77L33.41 27.44L33.5 27.1L33.57 26.76L33.64 26.42L33.69 26.07L33.72 25.72L33.74 25.36L33.75 25L33.74 24.64L33.72 24.28L33.69 23.93L33.64 23.58L33.57 23.24L33.5 22.9L33.41 22.56L33.3 22.23L33.19 21.91L33.06 21.59L32.92 21.28L32.77 20.98L32.61 20.68L32.44 20.39L32.26 20.11L32.06 19.83L31.86 19.56L31.64 19.31L31.42 19.05L31.19 18.81L30.95 18.58L30.69 18.36L30.44 18.14L30.17 17.94L29.89 17.74L29.61 17.56L29.32 17.39L29.02 17.23L28.72 17.08L28.41 16.94L28.09 16.81L27.77 16.7L27.44 16.59L27.1 16.5L26.76 16.43L26.42 16.36L26.07 16.31L25.72 16.28L25.36 16.26L25 16.25L24.64 16.26L24.28 16.28Z" id="e264ECY2Vu"></path></defs><g><g><g><g><filter id="shadow13613468" x="-4" y="-4" width="59" height="59" filterUnits="userSpaceOnUse" primitiveUnits="userSpaceOnUse"><feFlood></feFlood><feComposite in2="SourceAlpha" operator="in"></feComposite><feGaussianBlur stdDeviation="1"></feGaussianBlur><feOffset dx="1" dy="1" result="afterOffset"></feOffset><feFlood flood-color="#06f6f0" flood-opacity="0.5"></feFlood><feComposite in2="afterOffset" operator="in"></feComposite><feMorphology operator="dilate" radius="1"></feMorphology><feComposite in2="SourceAlpha" operator="out"></feComposite></filter><path d="M28.08 5L28.12 5.01L28.16 5.02L28.19 5.03L28.23 5.04L28.26 5.05L28.29 5.06L28.33 5.08L28.36 5.1L28.39 5.12L28.42 5.14L28.45 5.16L28.47 5.19L28.5 5.21L28.53 5.24L28.55 5.27L28.58 5.3L28.6 5.33L28.62 5.37L28.65 5.4L28.67 5.44L28.69 5.47L28.71 5.51L28.73 5.55L28.75 5.59L28.77 5.63L28.79 5.68L28.81 5.72L28.83 5.76L28.85 5.81L28.86 5.86L28.88 5.9L28.9 5.95L28.92 6L28.93 6.05L28.95 6.1L28.97 6.15L28.98 6.2L29 6.25L29.86 9.49L30.14 9.58L30.74 9.79L31.33 10.03L31.9 10.28L32.47 10.56L32.51 10.59L35.43 8.9L35.48 8.88L35.53 8.85L35.57 8.83L35.62 8.81L35.67 8.78L35.71 8.76L35.76 8.74L35.81 8.72L35.85 8.7L35.9 8.68L35.94 8.66L35.98 8.64L36.03 8.63L36.07 8.61L36.11 8.6L36.16 8.58L36.2 8.57L36.24 8.56L36.28 8.55L36.32 8.54L36.36 8.54L36.4 8.53L36.44 8.53L36.48 8.52L36.52 8.52L36.55 8.52L36.59 8.52L36.63 8.53L36.66 8.53L36.7 8.54L36.73 8.55L36.77 8.56L36.8 8.57L36.83 8.59L36.87 8.61L36.9 8.63L36.93 8.65L36.96 8.67L36.99 8.7L37.02 8.72L41.26 12.97L41.29 13L41.32 13.03L41.34 13.06L41.36 13.09L41.38 13.12L41.4 13.16L41.42 13.19L41.43 13.22L41.44 13.26L41.45 13.3L41.46 13.33L41.47 13.37L41.47 13.41L41.48 13.45L41.48 13.48L41.48 13.52L41.48 13.56L41.47 13.6L41.47 13.64L41.46 13.68L41.45 13.73L41.45 13.77L41.43 13.81L41.42 13.85L41.41 13.89L41.4 13.94L41.38 13.98L41.36 14.02L41.35 14.07L41.33 14.11L41.31 14.16L41.29 14.2L41.26 14.24L41.24 14.29L41.22 14.33L41.19 14.38L41.17 14.42L41.14 14.47L41.11 14.51L41.09 14.56L39.4 17.47L39.44 17.53L39.72 18.1L39.97 18.67L40.21 19.26L40.42 19.86L40.51 20.14L43.75 21L43.8 21.01L43.85 21.02L43.9 21.04L43.95 21.05L44 21.07L44.05 21.08L44.1 21.1L44.14 21.11L44.19 21.13L44.24 21.15L44.28 21.16L44.32 21.18L44.37 21.2L44.41 21.22L44.45 21.24L44.49 21.26L44.53 21.28L44.56 21.31L44.6 21.33L44.63 21.35L44.67 21.38L44.7 21.4L44.73 21.43L44.76 21.46L44.79 21.48L44.81 21.51L44.84 21.54L44.86 21.57L44.88 21.6L44.9 21.63L44.92 21.67L44.94 21.7L44.95 21.73L44.96 21.77L44.97 21.81L44.98 21.84L44.99 21.88L45 21.92L45 21.96L45 22L45 28L45 28.04L45 28.08L44.99 28.12L44.98 28.16L44.97 28.19L44.96 28.23L44.95 28.26L44.94 28.29L44.92 28.33L44.9 28.36L44.88 28.39L44.86 28.42L44.84 28.45L44.81 28.47L44.79 28.5L44.76 28.53L44.73 28.55L44.7 28.58L44.67 28.6L44.63 28.62L44.6 28.65L44.56 28.67L44.53 28.69L44.49 28.71L44.45 28.73L44.41 28.75L44.37 28.77L44.32 28.79L44.28 28.81L44.24 28.83L44.19 28.85L44.14 28.86L44.1 28.88L44.05 28.9L44 28.92L43.95 28.93L43.9 28.95L43.85 28.97L43.8 28.98L43.75 29L40.51 29.86L40.42 30.14L40.21 30.74L39.97 31.33L39.72 31.9L39.44 32.47L39.4 32.52L41.09 35.43L41.11 35.47L41.14 35.52L41.17 35.56L41.19 35.61L41.22 35.65L41.24 35.7L41.26 35.74L41.29 35.79L41.31 35.83L41.33 35.88L41.35 35.92L41.36 35.96L41.38 36.01L41.4 36.05L41.41 36.09L41.42 36.14L41.43 36.18L41.45 36.22L41.45 36.26L41.46 36.3L41.47 36.35L41.47 36.39L41.48 36.43L41.48 36.47L41.48 36.5L41.48 36.54L41.47 36.58L41.47 36.62L41.46 36.66L41.45 36.69L41.44 36.73L41.43 36.76L41.42 36.8L41.4 36.83L41.38 36.87L41.36 36.9L41.34 36.93L41.32 36.96L41.29 36.99L41.26 37.02L37.02 41.26L36.99 41.29L36.96 41.32L36.93 41.34L36.9 41.36L36.87 41.38L36.83 41.4L36.8 41.41L36.77 41.43L36.73 41.44L36.7 41.45L36.66 41.45L36.63 41.46L36.59 41.46L36.55 41.47L36.52 41.47L36.48 41.46L36.44 41.46L36.4 41.46L36.36 41.45L36.32 41.44L36.28 41.44L36.24 41.43L36.2 41.42L36.16 41.4L36.11 41.39L36.07 41.38L36.03 41.36L35.98 41.34L35.94 41.33L35.9 41.31L35.85 41.29L35.81 41.27L35.76 41.25L35.71 41.23L35.67 41.2L35.62 41.18L35.57 41.16L35.53 41.14L35.48 41.11L35.43 41.09L32.52 39.4L32.47 39.44L31.9 39.72L31.33 39.97L30.74 40.21L30.14 40.42L29.86 40.51L29 43.75L28.98 43.8L28.97 43.85L28.95 43.9L28.93 43.95L28.92 44L28.9 44.05L28.88 44.1L28.86 44.14L28.85 44.19L28.83 44.24L28.81 44.28L28.79 44.32L28.77 44.37L28.75 44.41L28.73 44.45L28.71 44.49L28.69 44.53L28.67 44.56L28.65 44.6L28.62 44.63L28.6 44.67L28.58 44.7L28.55 44.73L28.53 44.76L28.5 44.79L28.47 44.81L28.45 44.84L28.42 44.86L28.39 44.88L28.36 44.9L28.33 44.92L28.29 44.94L28.26 44.95L28.23 44.96L28.19 44.97L28.16 44.98L28.12 44.99L28.08 45L28.04 45L28 45L22 45L21.96 45L21.92 45L21.88 44.99L21.84 44.98L21.81 44.97L21.77 44.96L21.73 44.95L21.7 44.94L21.67 44.92L21.63 44.9L21.6 44.88L21.57 44.86L21.54 44.84L21.51 44.81L21.48 44.79L21.46 44.76L21.43 44.73L21.4 44.7L21.38 44.67L21.35 44.63L21.33 44.6L21.31 44.56L21.28 44.53L21.26 44.49L21.24 44.45L21.22 44.41L21.2 44.37L21.18 44.32L21.16 44.28L21.15 44.24L21.13 44.19L21.11 44.14L21.1 44.1L21.08 44.05L21.07 44L21.05 43.95L21.04 43.9L21.02 43.85L21.01 43.8L21 43.75L20.14 40.51L19.86 40.42L19.26 40.21L18.67 39.97L18.1 39.72L17.53 39.44L17.46 39.4L14.57 41.07L14.53 41.1L14.48 41.13L14.44 41.16L14.39 41.18L14.35 41.21L14.3 41.23L14.26 41.25L14.21 41.27L14.17 41.3L14.12 41.32L14.08 41.33L14.04 41.35L13.99 41.37L13.95 41.38L13.91 41.4L13.86 41.41L13.82 41.42L13.78 41.43L13.74 41.44L13.7 41.45L13.65 41.46L13.61 41.46L13.57 41.46L13.53 41.47L13.5 41.47L13.46 41.46L13.42 41.46L13.38 41.46L13.34 41.45L13.31 41.44L13.27 41.43L13.24 41.42L13.2 41.41L13.17 41.39L13.13 41.37L13.1 41.35L13.07 41.33L13.04 41.31L13.01 41.28L12.98 41.25L8.74 37.01L8.71 36.98L8.68 36.95L8.66 36.92L8.64 36.89L8.62 36.85L8.6 36.82L8.59 36.79L8.57 36.76L8.56 36.72L8.55 36.69L8.55 36.65L8.54 36.62L8.54 36.58L8.53 36.54L8.53 36.5L8.54 36.47L8.54 36.43L8.54 36.39L8.55 36.35L8.56 36.31L8.56 36.27L8.57 36.23L8.58 36.19L8.6 36.14L8.61 36.1L8.62 36.06L8.64 36.02L8.66 35.97L8.67 35.93L8.69 35.88L8.71 35.84L8.73 35.79L8.75 35.75L8.77 35.7L8.8 35.66L8.82 35.61L8.84 35.56L8.86 35.51L8.89 35.47L8.91 35.42L10.59 32.52L10.56 32.47L10.28 31.9L10.03 31.33L9.79 30.74L9.58 30.14L9.49 29.86L6.25 29L6.2 28.98L6.15 28.97L6.1 28.95L6.05 28.93L6 28.92L5.95 28.9L5.9 28.88L5.86 28.86L5.81 28.85L5.76 28.83L5.72 28.81L5.68 28.79L5.63 28.77L5.59 28.75L5.55 28.73L5.51 28.71L5.47 28.69L5.44 28.67L5.4 28.65L5.37 28.62L5.33 28.6L5.3 28.58L5.27 28.55L5.24 28.53L5.21 28.5L5.19 28.47L5.16 28.45L5.14 28.42L5.12 28.39L5.1 28.36L5.08 28.33L5.06 28.29L5.05 28.26L5.04 28.23L5.03 28.19L5.02 28.16L5.01 28.12L5 28.08L5 28.04L5 28L5 22L5 21.96L5 21.92L5.01 21.88L5.02 21.84L5.03 21.81L5.04 21.77L5.05 21.73L5.06 21.7L5.08 21.67L5.1 21.63L5.12 21.6L5.14 21.57L5.16 21.54L5.19 21.51L5.21 21.48L5.24 21.46L5.27 21.43L5.3 21.4L5.33 21.38L5.37 21.35L5.4 21.33L5.44 21.31L5.47 21.28L5.51 21.26L5.55 21.24L5.59 21.22L5.63 21.2L5.68 21.18L5.72 21.16L5.76 21.15L5.81 21.13L5.86 21.11L5.9 21.1L5.95 21.08L6 21.07L6.05 21.05L6.1 21.04L6.15 21.02L6.2 21.01L6.25 21L9.49 20.14L9.58 19.86L9.79 19.26L10.03 18.67L10.28 18.1L10.56 17.53L10.6 17.48L8.91 14.57L8.89 14.52L8.86 14.47L8.84 14.43L8.82 14.38L8.8 14.33L8.77 14.29L8.75 14.24L8.73 14.19L8.71 14.15L8.69 14.1L8.67 14.06L8.66 14.02L8.64 13.97L8.62 13.93L8.61 13.89L8.6 13.84L8.58 13.8L8.57 13.76L8.56 13.72L8.56 13.68L8.55 13.64L8.54 13.6L8.54 13.56L8.54 13.52L8.53 13.48L8.53 13.45L8.54 13.41L8.54 13.37L8.55 13.34L8.55 13.3L8.56 13.27L8.57 13.23L8.59 13.2L8.6 13.17L8.62 13.13L8.64 13.1L8.66 13.07L8.68 13.04L8.71 13.01L8.74 12.98L12.98 8.74L13.01 8.71L13.04 8.68L13.07 8.66L13.1 8.64L13.13 8.62L13.17 8.6L13.2 8.58L13.24 8.57L13.27 8.56L13.31 8.55L13.34 8.54L13.38 8.53L13.42 8.53L13.46 8.52L13.5 8.52L13.53 8.52L13.57 8.52L13.61 8.53L13.65 8.53L13.7 8.54L13.74 8.55L13.78 8.55L13.82 8.57L13.86 8.58L13.91 8.59L13.95 8.6L13.99 8.62L14.04 8.64L14.08 8.65L14.12 8.67L14.17 8.69L14.21 8.71L14.26 8.74L14.3 8.76L14.35 8.78L14.39 8.81L14.44 8.83L14.48 8.86L14.53 8.89L14.57 8.91L17.48 10.6L17.53 10.56L18.1 10.28L18.67 10.03L19.26 9.79L19.86 9.58L20.14 9.49L21 6.25L21.01 6.2L21.02 6.15L21.04 6.1L21.05 6.05L21.07 6L21.08 5.95L21.1 5.9L21.11 5.86L21.13 5.81L21.15 5.76L21.16 5.72L21.18 5.68L21.2 5.63L21.22 5.59L21.24 5.55L21.26 5.51L21.28 5.47L21.31 5.44L21.33 5.4L21.35 5.37L21.38 5.33L21.4 5.3L21.43 5.27L21.46 5.24L21.48 5.21L21.51 5.19L21.54 5.16L21.57 5.14L21.6 5.12L21.63 5.1L21.67 5.08L21.7 5.06L21.73 5.05L21.77 5.04L21.81 5.03L21.84 5.02L21.88 5.01L21.92 5L21.96 5L22 5L28 5L28.04 5L28.08 5ZM24.28 16.28L23.93 16.31L23.58 16.36L23.24 16.43L22.9 16.5L22.56 16.59L22.23 16.7L21.91 16.81L21.59 16.94L21.28 17.08L20.98 17.23L20.68 17.39L20.39 17.56L20.11 17.74L19.83 17.94L19.56 18.14L19.31 18.36L19.05 18.58L18.81 18.81L18.58 19.05L18.36 19.31L18.14 19.56L17.94 19.83L17.74 20.11L17.56 20.39L17.39 20.68L17.23 20.98L17.08 21.28L16.94 21.59L16.81 21.91L16.7 22.23L16.59 22.56L16.5 22.9L16.43 23.24L16.36 23.58L16.31 23.93L16.28 24.28L16.26 24.64L16.25 25L16.26 25.36L16.28 25.72L16.31 26.07L16.36 26.42L16.43 26.76L16.5 27.1L16.59 27.44L16.7 27.77L16.81 28.09L16.94 28.41L17.08 28.72L17.23 29.02L17.39 29.32L17.56 29.61L17.74 29.89L17.94 30.17L18.14 30.44L18.36 30.69L18.58 30.95L18.81 31.19L19.05 31.42L19.31 31.64L19.56 31.86L19.83 32.06L20.11 32.26L20.39 32.44L20.68 32.61L20.98 32.77L21.28 32.92L21.59 33.06L21.91 33.19L22.23 33.3L22.56 33.41L22.9 33.5L23.24 33.57L23.58 33.64L23.93 33.69L24.28 33.72L24.64 33.74L25 33.75L25.36 33.74L25.72 33.72L26.07 33.69L26.42 33.64L26.76 33.57L27.1 33.5L27.44 33.41L27.77 33.3L28.09 33.19L28.41 33.06L28.72 32.92L29.02 32.77L29.32 32.61L29.61 32.44L29.89 32.26L30.17 32.06L30.44 31.86L30.69 31.64L30.95 31.42L31.19 31.19L31.42 30.95L31.64 30.69L31.86 30.44L32.06 30.17L32.26 29.89L32.44 29.61L32.61 29.32L32.77 29.02L32.92 28.72L33.06 28.41L33.19 28.09L33.3 27.77L33.41 27.44L33.5 27.1L33.57 26.76L33.64 26.42L33.69 26.07L33.72 25.72L33.74 25.36L33.75 25L33.74 24.64L33.72 24.28L33.69 23.93L33.64 23.58L33.57 23.24L33.5 22.9L33.41 22.56L33.3 22.23L33.19 21.91L33.06 21.59L32.92 21.28L32.77 20.98L32.61 20.68L32.44 20.39L32.26 20.11L32.06 19.83L31.86 19.56L31.64 19.31L31.42 19.05L31.19 18.81L30.95 18.58L30.69 18.36L30.44 18.14L30.17 17.94L29.89 17.74L29.61 17.56L29.32 17.39L29.02 17.23L28.72 17.08L28.41 16.94L28.09 16.81L27.77 16.7L27.44 16.59L27.1 16.5L26.76 16.43L26.42 16.36L26.07 16.31L25.72 16.28L25.36 16.26L25 16.25L24.64 16.26L24.28 16.28Z" id="aCKSmwjA0" fill="white" fill-opacity="1" filter="url(#shadow13613468)"></path></g><use xlink:href="#e264ECY2Vu" opacity="1" fill="#78dfd0" fill-opacity="1"></use></g></g></g></svg>